<svg xmlns="http://www.w3.org/2000/svg" viewBox="0 0 96 96">
  <title>PMHNP Billing</title>
  <rect x="4" y="4" width="88" height="88" rx="24" fill="#fff8ee" stroke="#17685d" stroke-width="4"/>
  <g fill="none" stroke="#17685d" stroke-width="4.3" stroke-linecap="round" stroke-linejoin="round">
    <path fill="#fffdf8" d="M34 19.5c8-1.5 20.5-1.2 28.5.6 2 .5 3.3 2 3.2 4l-.8 25.2c-.1 2.7-2.1 4.8-4.8 4.9-8 .4-17 .2-25.1-.5-2.2-.2-3.8-2.1-3.7-4.4l.8-25.2c.1-2.3.7-4.1 1.9-4.6z"/>
    <path d="M55.3 19.6c.1 4.3 1.7 6.8 6.7 7.9l3.3.8"/>
    <path stroke="#ff8d70" stroke-width="5.2" d="M37.5 37h5l2.8-4.7 4.1 9.2 3.1-5.6H59"/>
    <path d="M14.5 62.5c5.2-3.6 10.2-4.7 15-2.4l8.1 4c2.4 1.1 4 3.2 4 5.8-7.1.5-12.6-1.4-17.4-4.2 4.6 5 10.9 8.1 19.2 8.5 4.5.2 7.2-1.3 9.8-4.2"/>
    <path d="M81.5 62.4c-5-3.4-9.9-4.5-14.7-2.2l-8.2 4.1c-2.2 1.1-3.7 3.1-3.7 5.5 6.8.6 12.3-1.1 17.1-4.1-4.7 5.1-10.9 8-18.8 8.4"/>
    <path stroke="#ff8d70" d="m41.5 14-1.8-4M48 13V8.5m6.6 5.6 2-4"/>
  </g>
</svg>
